<?xml version="1.0" encoding="utf-8"?>
<!-- Generator: Adobe Illustrator 24.1.2, SVG Export Plug-In . SVG Version: 6.00 Build 0)  -->
<svg version="1.1" id="Camada_1" xmlns="http://www.w3.org/2000/svg" xmlns:xlink="http://www.w3.org/1999/xlink" x="0px" y="0px"
	 viewBox="0 0 1066 213" style="enable-background:new 0 0 1066 213;" xml:space="preserve">
<style type="text/css">
	.st0{fill:#79C41D;}
</style>
<g>
	<path d="M246.33,117.77v17.13h-37.12l-19.28,36.76c-1.77,3.22-4.99,5.02-8.56,4.65c-3.57,0-6.42-2.5-7.5-5.7l-14.64-42.48
		l-12.84,31.04c-1.79,3.22-5.36,5.36-9.29,5.36c-3.57-0.71-6.79-3.57-7.5-7.5l-12.13-74.95l-14.64,114.23
		c-0.37,4.28-3.94,7.5-8.22,7.5c0,0,0,0-0.34,0c-3.94,0-7.5-3.22-8.58-7.16l-16.78-88.17l-10.35,21.78
		c-1.43,2.85-4.62,4.63-7.84,4.63H14.67v-17.13h30.35l19.63-40.71c1.8-3.57,5.36-5.34,8.93-4.99c3.91,0.71,6.79,3.22,7.5,7.13
		l11.78,62.13l14.98-116.02c0.37-4.28,3.94-7.13,8.22-7.13c4.28-0.37,7.84,2.85,8.93,7.13l16.41,99.95l10.72-24.99
		c1.43-3.22,4.63-5.72,8.22-5.36c3.91,0,6.76,2.51,8.19,5.71l15.35,45.34l12.49-23.55c1.43-2.87,4.31-4.65,7.5-4.65H246.33z"/>
	<path class="st0" d="M241.71,113.46v17.13h-37.12l-19.28,36.76c-1.77,3.22-4.99,5.02-8.56,4.65c-3.57,0-6.42-2.5-7.5-5.7
		l-14.64-42.48l-12.84,31.04c-1.79,3.22-5.36,5.36-9.29,5.36c-3.57-0.71-6.79-3.57-7.5-7.5l-12.13-74.95L98.22,191.99
		c-0.37,4.28-3.94,7.5-8.22,7.5c0,0,0,0-0.34,0c-3.94,0-7.5-3.22-8.58-7.16L64.3,104.17l-10.35,21.78
		c-1.43,2.85-4.62,4.63-7.84,4.63H10.04v-17.13h30.35l19.63-40.71c1.8-3.57,5.36-5.34,8.93-4.99c3.91,0.71,6.79,3.22,7.5,7.13
		l11.78,62.13l14.98-116.02c0.37-4.28,3.94-7.13,8.22-7.13c4.28-0.37,7.84,2.85,8.93,7.13l16.41,99.95l10.72-24.99
		c1.43-3.22,4.63-5.72,8.22-5.36c3.91,0,6.76,2.51,8.19,5.71l15.35,45.34l12.49-23.55c1.43-2.87,4.31-4.65,7.5-4.65H241.71z"/>
	<g>
		<path d="M397.71,32.24c5.33,0,8.33,2.37,8.33,6.57v131.47c0,4.21-3,6.57-8.33,6.57h-16.33c-5.33,0-8.33-2.37-8.33-6.57
			l-0.33-58.11c0-1.32-1.67-1.32-2-0.26l-22.33,52.59c-2.67,5.79-8.33,5.79-10.67,0l-23.67-53.38c-0.67-1.31-2-1.05-2,0.26v58.9
			c0,4.21-3,6.57-8.33,6.57h-16.67c-5.33,0-8.33-2.37-8.33-6.57V38.81c0-4.21,3-6.57,8.33-6.57h17.67c4.67,0,7.67,1.58,9.33,5.26
			l27.33,60.48c0.67,1.31,1.67,1.31,2.33,0l27-60.48c1.67-3.68,4.67-5.26,9.33-5.26H397.71z"/>
		<path d="M464.71,58.53c-5.33,0-8.33,2.37-8.33,6.57V91.4c0,4.21,3,6.57,8.33,6.57h50c5.33,0,8.33,2.37,8.33,6.57v13.15
			c0,4.21-3,6.57-8.33,6.57h-50c-5.33,0-8.33,2.37-8.33,6.57v13.15c0,4.21,3,6.57,8.33,6.57h50c5.33,0,8.33,2.37,8.33,6.57v13.15
			c0,4.21-3,6.57-8.33,6.57h-58.33c-21.67,0-33.33-9.2-33.33-26.29V58.53c0-17.09,11.67-26.29,33.33-26.29h58.33
			c5.33,0,8.33,2.37,8.33,6.57v13.15c0,4.21-3,6.57-8.33,6.57H464.71z"/>
		<path d="M589.7,32.24c32.67,0,50,14.2,50,39.7v65.21c0,25.51-17.33,39.7-50,39.7h-41.66c-5.33,0-8.33-2.37-8.33-6.57V38.81
			c0-4.21,3-6.57,8.33-6.57H589.7z M606.36,71.94c0-8.41-5.67-13.15-16.67-13.15h-8.33c-5.33,0-8.33,2.37-8.33,6.57v78.36
			c0,4.21,3,6.57,8.33,6.57h8.33c11,0,16.67-4.73,16.67-13.15V71.94z"/>
		<path d="M656.36,38.81c0-4.21,3-6.57,8.33-6.57h16.67c5.33,0,8.33,2.37,8.33,6.57v131.47c0,4.21-3,6.57-8.33,6.57h-16.67
			c-5.33,0-8.33-2.37-8.33-6.57V38.81z"/>
		<path d="M781.35,84.83c-5.33,0-8.33-2.37-8.33-6.57v-6.31c0-8.68-5.67-13.15-16.67-13.15c-11,0-16.67,4.73-16.67,13.15v65.21
			c0,8.41,5.67,13.15,16.67,13.15c11,0,16.67-4.73,16.67-13.15v-6.31c0-4.21,3-6.57,8.33-6.57h16.67c5.33,0,8.33,2.37,8.33,6.57
			v13.15c0,21.3-14.67,32.87-41.66,32.87h-8.33c-32.67,0-50-14.2-50-39.7V71.94c0-25.5,17.33-39.7,50-39.7h8.33
			c27,0,41.66,11.57,41.66,32.87v13.15c0,4.21-3,6.57-8.33,6.57H781.35z"/>
		<path d="M889.68,32.24c21.67,0,33.33,9.2,33.33,26.29v111.75c0,4.21-3,6.57-8.33,6.57h-16.67c-5.33,0-8.33-2.37-8.33-6.57v-39.44
			c0-4.21-3-6.57-8.33-6.57h-16.67c-5.33,0-8.33,2.37-8.33,6.57v39.44c0,4.21-3,6.57-8.33,6.57h-16.67c-5.33,0-8.33-2.37-8.33-6.57
			V58.53c0-17.09,11.67-26.29,33.33-26.29H889.68z M864.68,58.53c-5.33,0-8.33,2.37-8.33,6.57V91.4c0,4.21,3,6.57,8.33,6.57h16.67
			c5.33,0,8.33-2.37,8.33-6.57V65.11c0-4.21-3-6.57-8.33-6.57H864.68z"/>
		<path d="M1039.67,150.56c5.33,0,8.33,2.37,8.33,6.57v13.15c0,4.21-3,6.57-8.33,6.57H973c-21.67,0-33.33-9.2-33.33-26.29V38.81
			c0-4.21,3-6.57,8.33-6.57h16.67c5.33,0,8.33,2.37,8.33,6.57v105.18c0,4.21,3,6.57,8.33,6.57H1039.67z"/>
	</g>
</g>
</svg>
