<?xml version="1.0" encoding="utf-8"?>
<!-- Generator: Adobe Illustrator 24.1.2, SVG Export Plug-In . SVG Version: 6.00 Build 0)  -->
<svg version="1.1" id="Camada_1" xmlns="http://www.w3.org/2000/svg" xmlns:xlink="http://www.w3.org/1999/xlink" x="0px" y="0px"
	 viewBox="0 0 260 213" style="enable-background:new 0 0 260 213;" xml:space="preserve">
<style type="text/css">
	.st0{fill:#79C41D;}
</style>
<g>
	<path d="M246.33,117.77v17.13h-37.12l-19.28,36.76c-1.77,3.22-4.99,5.02-8.56,4.65c-3.57,0-6.42-2.5-7.5-5.7l-14.64-42.48
		l-12.84,31.04c-1.79,3.22-5.36,5.36-9.29,5.36c-3.57-0.71-6.79-3.57-7.5-7.5l-12.13-74.95l-14.64,114.23
		c-0.37,4.28-3.94,7.5-8.22,7.5c0,0,0,0-0.34,0c-3.94,0-7.5-3.22-8.58-7.16l-16.78-88.17l-10.35,21.78
		c-1.43,2.85-4.62,4.63-7.84,4.63H14.67v-17.13h30.35l19.63-40.71c1.8-3.57,5.36-5.34,8.93-4.99c3.91,0.71,6.79,3.22,7.5,7.13
		l11.78,62.13l14.98-116.02c0.37-4.28,3.94-7.13,8.22-7.13c4.28-0.37,7.84,2.85,8.93,7.13l16.41,99.95l10.72-24.99
		c1.43-3.22,4.63-5.72,8.22-5.36c3.91,0,6.76,2.51,8.19,5.71l15.35,45.34l12.49-23.55c1.43-2.87,4.31-4.65,7.5-4.65H246.33z"/>
	<path class="st0" d="M241.71,113.46v17.13h-37.12l-19.28,36.76c-1.77,3.22-4.99,5.02-8.56,4.65c-3.57,0-6.42-2.5-7.5-5.7
		l-14.64-42.48l-12.84,31.04c-1.79,3.22-5.36,5.36-9.29,5.36c-3.57-0.71-6.79-3.57-7.5-7.5l-12.13-74.95L98.22,191.99
		c-0.37,4.28-3.94,7.5-8.22,7.5c0,0,0,0-0.34,0c-3.94,0-7.5-3.22-8.58-7.16L64.3,104.17l-10.35,21.78
		c-1.43,2.85-4.62,4.63-7.84,4.63H10.04v-17.13h30.35l19.63-40.71c1.8-3.57,5.36-5.34,8.93-4.99c3.91,0.71,6.79,3.22,7.5,7.13
		l11.78,62.13l14.98-116.02c0.37-4.28,3.94-7.13,8.22-7.13c4.28-0.37,7.84,2.85,8.93,7.13l16.41,99.95l10.72-24.99
		c1.43-3.22,4.63-5.72,8.22-5.36c3.91,0,6.76,2.51,8.19,5.71l15.35,45.34l12.49-23.55c1.43-2.87,4.31-4.65,7.5-4.65H241.71z"/>
</g>
</svg>
